<svg version="1.1" id="Layer_1" xmlns="http://www.w3.org/2000/svg" xmlns:xlink="http://www.w3.org/1999/xlink" x="0px" y="0px"
	 width="100%" viewBox="0 0 500 500" enable-background="new 0 0 500 500" xml:space="preserve">
<path fill="#000000" opacity="1.000000" stroke="none" 
	d="M263.039581,304.917450 
	C254.681335,304.939087 246.323090,304.960754 237.238144,304.898071 
	C235.853500,304.374115 234.275482,304.119019 233.114563,303.284027 
	C223.063095,296.054504 213.157822,288.619324 203.027145,281.504333 
	C201.022217,280.096222 198.269760,279.219147 195.806412,279.079773 
	C171.845612,277.723938 150.651443,286.844818 129.927689,297.213379 
	C124.126595,300.115784 118.597336,303.619171 115.470642,310.191895 
	C111.310211,318.937714 106.199661,327.233826 101.446228,335.694458 
	C98.935982,340.162415 96.180542,344.498444 93.820122,349.041748 
	C92.964943,350.687836 90.384384,353.487915 96.048874,353.928131 
	C108.645073,353.916962 121.241264,353.905792 134.593018,353.917267 
	C135.674957,353.570221 136.874832,353.418182 137.820679,352.846161 
	C147.856003,346.776672 157.886292,340.697113 167.838196,334.492401 
	C171.405197,332.268524 174.513382,331.676483 178.328217,334.345551 
	C186.953323,340.380096 195.828583,346.060852 204.680237,351.764313 
	C206.279785,352.794952 208.252075,353.247131 210.979568,353.981689 
	C274.624481,353.969788 338.269409,353.957886 402.733246,354.001862 
	C404.499939,354.001862 406.266632,354.001862 408.154968,354.001862 
	C408.079742,352.919342 408.200775,352.353333 407.990417,351.968445 
	C401.268341,339.668884 394.597168,327.340027 387.709198,315.133575 
	C385.876404,311.885590 383.363800,309.021210 380.539734,305.377869 
	C379.223816,305.250122 377.907928,305.011047 376.591980,305.010834 
	C339.049835,305.005493 301.507721,305.024200 263.039581,304.917450 
M231.155838,115.025604 
	C226.109665,115.436432 222.569138,118.118996 220.023849,122.348221 
	C217.976776,125.749611 215.804520,129.077744 213.824890,132.517273 
	C206.499008,145.245697 199.160049,157.967880 192.007599,170.793655 
	C190.801422,172.956604 190.492081,175.619675 189.768372,178.051682 
	C192.061127,177.635529 194.354950,177.225098 196.645432,176.796768 
	C196.968719,176.736313 197.268875,176.558517 197.591187,176.485565 
	C210.477066,173.569183 223.337753,170.533218 236.263184,167.803833 
	C242.135391,166.563843 248.169876,164.165146 253.809357,169.021301 
	C258.658813,173.197174 263.680267,177.195068 268.830109,180.994522 
	C274.490112,185.170410 280.383942,189.029404 286.682190,193.676834 
	C296.904236,193.778809 307.126404,193.917603 317.347992,193.882950 
	C317.907501,193.881058 318.462097,192.433548 319.029785,190.971817 
	C316.528473,186.491806 314.064117,181.990707 311.519226,177.535583 
	C302.328369,161.445724 293.211121,145.312393 283.854614,129.319199 
	C279.943726,122.634254 276.210327,115.418037 266.443054,114.270569 
	C255.623810,114.172134 244.804611,114.054459 233.985168,114.020363 
	C233.294479,114.018188 232.601746,114.663994 231.155838,115.025604 
M364.986145,274.283813 
	C362.258148,269.256012 359.582153,264.199127 356.791779,259.206207 
	C350.214569,247.437332 343.582855,235.698914 336.598511,223.159912 
	C316.423126,223.118118 296.247711,223.076324 275.517517,222.622925 
	C265.707275,215.362534 255.449966,208.622528 246.217148,200.690063 
	C237.612091,193.296951 227.782104,193.867035 218.440628,195.678406 
	C206.171143,198.057495 194.195709,202.268402 182.353973,206.431519 
	C173.928986,209.393448 167.345047,214.597992 163.402328,223.474274 
	C159.325302,232.652878 153.393448,240.996124 148.470566,249.815094 
	C145.782043,254.631378 143.502670,259.676056 140.961151,264.773438 
	C142.054504,265.099426 142.558044,265.435089 142.967072,265.344452 
	C154.144257,262.867340 165.321655,260.389679 176.478043,257.820892 
	C186.818283,255.440063 197.108292,252.831573 207.485031,250.627533 
	C209.351883,250.231018 211.944016,250.720322 213.499084,251.806213 
	C221.912811,257.681610 229.983612,264.050476 238.432251,269.872437 
	C242.022736,272.346680 246.245300,273.903687 251.089569,275.978455 
	C287.694336,275.981537 324.299133,275.994995 360.903839,275.946930 
	C362.264313,275.945160 363.624023,275.343872 364.986145,274.283813 
z"/>
<path fill="#1E1E1E" opacity="1.000000" stroke="none" 
	d="
M381.163300,305.980713 
	C383.363800,309.021210 385.876404,311.885590 387.709198,315.133575 
	C394.597168,327.340027 401.268341,339.668884 407.990417,351.968445 
	C408.200775,352.353333 408.079742,352.919342 408.154968,354.001862 
	C406.266632,354.001862 404.499939,354.001862 401.968292,353.783630 
	C399.395172,353.372070 397.587036,353.010437 395.778809,353.009766 
	C335.978607,352.987030 276.178375,352.989044 216.378220,353.045990 
	C214.269272,353.048004 212.160904,353.646088 210.052277,353.966370 
	C208.252075,353.247131 206.279785,352.794952 204.680237,351.764313 
	C195.828583,346.060852 186.953323,340.380096 178.328217,334.345551 
	C174.513382,331.676483 171.405197,332.268524 167.838196,334.492401 
	C157.886292,340.697113 147.856003,346.776672 137.820679,352.846161 
	C136.874832,353.418182 135.674957,353.570221 133.861755,353.733856 
	C124.717819,353.372253 116.305199,353.069946 107.892494,353.067902 
	C103.640831,353.066864 99.389038,353.609039 95.137299,353.905609 
	C90.384384,353.487915 92.964943,350.687836 93.820122,349.041748 
	C96.180542,344.498444 98.935982,340.162415 101.446228,335.694458 
	C106.199661,327.233826 111.310211,318.937714 115.470642,310.191895 
	C118.597336,303.619171 124.126595,300.115784 129.927689,297.213379 
	C150.651443,286.844818 171.845612,277.723938 195.806412,279.079773 
	C198.269760,279.219147 201.022217,280.096222 203.027145,281.504333 
	C213.157822,288.619324 223.063095,296.054504 233.114563,303.284027 
	C234.275482,304.119019 235.853500,304.374115 237.852371,305.292542 
	C246.961502,305.780853 255.456390,305.874725 264.295105,305.966553 
	C265.097137,305.979034 265.555359,305.993561 266.377808,306.198853 
	C268.381531,306.593811 270.020844,306.974518 271.660522,306.976227 
	C304.817017,307.011108 337.973602,307.018890 371.130035,306.960876 
	C373.073792,306.957489 375.016479,306.351562 377.379150,306.014984 
	C378.920166,305.996216 380.041748,305.988464 381.163300,305.980713 
z"/>
<path fill="#1F1E1F" opacity="1.000000" stroke="none" 
	d="
M336.973175,223.948166 
	C343.582855,235.698914 350.214569,247.437332 356.791779,259.206207 
	C359.582153,264.199127 362.258148,269.256012 364.517822,274.633545 
	C328.339081,274.978577 292.628662,274.957489 256.918335,275.008179 
	C254.672012,275.011353 252.426498,275.574768 250.180603,275.877533 
	C246.245300,273.903687 242.022736,272.346680 238.432251,269.872437 
	C229.983612,264.050476 221.912811,257.681610 213.499084,251.806213 
	C211.944016,250.720322 209.351883,250.231018 207.485031,250.627533 
	C197.108292,252.831573 186.818283,255.440063 176.478043,257.820892 
	C165.321655,260.389679 154.144257,262.867340 142.967072,265.344452 
	C142.558044,265.435089 142.054504,265.099426 140.961151,264.773438 
	C143.502670,259.676056 145.782043,254.631378 148.470566,249.815094 
	C153.393448,240.996124 159.325302,232.652878 163.402328,223.474274 
	C167.345047,214.597992 173.928986,209.393448 182.353973,206.431519 
	C194.195709,202.268402 206.171143,198.057495 218.440628,195.678406 
	C227.782104,193.867035 237.612091,193.296951 246.217148,200.690063 
	C255.449966,208.622528 265.707275,215.362534 275.989990,223.213013 
	C296.632690,223.851471 316.802917,223.899811 336.973175,223.948166 
z"/>
<path fill="#1F1F1F" opacity="1.000000" stroke="none" 
	d="
M286.175903,193.026459 
	C280.383942,189.029404 274.490112,185.170410 268.830109,180.994522 
	C263.680267,177.195068 258.658813,173.197174 253.809357,169.021301 
	C248.169876,164.165146 242.135391,166.563843 236.263184,167.803833 
	C223.337753,170.533218 210.477066,173.569183 197.591187,176.485565 
	C197.268875,176.558517 196.968719,176.736313 196.645432,176.796768 
	C194.354950,177.225098 192.061127,177.635529 189.768372,178.051682 
	C190.492081,175.619675 190.801422,172.956604 192.007599,170.793655 
	C199.160049,157.967880 206.499008,145.245697 213.824890,132.517273 
	C215.804520,129.077744 217.976776,125.749611 220.023849,122.348221 
	C222.569138,118.118996 226.109665,115.436432 232.007935,115.015030 
	C243.590744,115.046356 254.321426,115.088242 265.160248,115.178123 
	C265.268372,115.226120 265.614624,115.250664 265.614624,115.250664 
	C265.614624,115.250664 265.946136,115.133545 266.180939,115.084747 
	C266.415741,115.035950 266.892975,114.987976 266.892975,114.987976 
	C276.210327,115.418037 279.943726,122.634254 283.854614,129.319199 
	C293.211121,145.312393 302.328369,161.445724 311.519226,177.535583 
	C314.064117,181.990707 316.528473,186.491806 318.758911,191.659103 
	C316.866852,192.589523 315.246857,193.033325 313.624329,193.042603 
	C304.475189,193.094955 295.325439,193.042923 286.175903,193.026459 
z"/>
<path fill="#322F2F" opacity="1.000000" stroke="none" 
	d="
M210.515930,353.973999 
	C212.160904,353.646088 214.269272,353.048004 216.378220,353.045990 
	C276.178375,352.989044 335.978607,352.987030 395.778809,353.009766 
	C397.587036,353.010437 399.395172,353.372070 401.558838,353.755707 
	C338.269409,353.957886 274.624481,353.969788 210.515930,353.973999 
z"/>
<path fill="#322F2F" opacity="1.000000" stroke="none" 
	d="
M380.851501,305.679291 
	C380.041748,305.988464 378.920166,305.996216 376.915161,306.007080 
	C339.359009,306.009521 302.686279,306.008820 266.013550,306.008087 
	C265.555359,305.993561 265.097137,305.979034 264.327362,305.734589 
	C264.015778,305.504669 263.965576,305.038971 263.965576,305.038971 
	C301.507721,305.024200 339.049835,305.005493 376.591980,305.010834 
	C377.907928,305.011047 379.223816,305.250122 380.851501,305.679291 
z"/>
<path fill="#605F5F" opacity="1.000000" stroke="none" 
	d="
M250.635086,275.927979 
	C252.426498,275.574768 254.672012,275.011353 256.918335,275.008179 
	C292.628662,274.957489 328.339081,274.978577 364.516785,275.002625 
	C363.624023,275.343872 362.264313,275.945160 360.903839,275.946930 
	C324.299133,275.994995 287.694336,275.981537 250.635086,275.927979 
z"/>
<path fill="#B3B3B3" opacity="1.000000" stroke="none" 
	d="
M336.785828,223.554047 
	C316.802917,223.899811 296.632690,223.851471 276.267395,223.418823 
	C296.247711,223.076324 316.423126,223.118118 336.785828,223.554047 
z"/>
<path fill="#322F2F" opacity="1.000000" stroke="none" 
	d="
M95.593086,353.916870 
	C99.389038,353.609039 103.640831,353.066864 107.892494,353.067902 
	C116.305199,353.069946 124.717819,353.372253 133.483978,353.722534 
	C121.241264,353.905792 108.645073,353.916962 95.593086,353.916870 
z"/>
<path fill="#605F5F" opacity="1.000000" stroke="none" 
	d="
M266.668030,114.629272 
	C266.892975,114.987976 266.415741,115.035950 265.957520,115.062363 
	C265.499298,115.088768 265.052124,115.130127 265.052124,115.130127 
	C254.321426,115.088242 243.590744,115.046356 232.385010,115.006409 
	C232.601746,114.663994 233.294479,114.018188 233.985168,114.020363 
	C244.804611,114.054459 255.623810,114.172134 266.668030,114.629272 
z"/>
<path fill="#605F5F" opacity="1.000000" stroke="none" 
	d="
M286.429047,193.351654 
	C295.325439,193.042923 304.475189,193.094955 313.624329,193.042603 
	C315.246857,193.033325 316.866852,192.589523 318.753510,192.002655 
	C318.462097,192.433548 317.907501,193.881058 317.347992,193.882950 
	C307.126404,193.917603 296.904236,193.778809 286.429047,193.351654 
z"/>
<path fill="#605F5F" opacity="1.000000" stroke="none" 
	d="
M263.502563,304.978210 
	C263.965576,305.038971 264.015778,305.504669 263.983521,305.736633 
	C255.456390,305.874725 246.961502,305.780853 238.215729,305.334717 
	C246.323090,304.960754 254.681335,304.939087 263.502563,304.978210 
z"/>
<path fill="#161418" opacity="1.000000" stroke="none" 
	d="
M266.377808,306.198853 
	C302.686279,306.008820 339.359009,306.009521 376.495728,306.018127 
	C375.016479,306.351562 373.073792,306.957489 371.130035,306.960876 
	C337.973602,307.018890 304.817017,307.011108 271.660522,306.976227 
	C270.020844,306.974518 268.381531,306.593811 266.377808,306.198853 
z"/>
<path fill="#161418" opacity="1.000000" stroke="none" 
	d="
M265.160248,115.178123 
	C265.052124,115.130127 265.499298,115.088768 265.722717,115.111160 
	C265.946136,115.133545 265.614624,115.250664 265.614624,115.250664 
	C265.614624,115.250664 265.268372,115.226120 265.160248,115.178123 
z"/>
</svg>